<svg id="Ebene_1" data-name="Ebene 1" xmlns="http://www.w3.org/2000/svg" viewBox="0 0 592.79 134.3"><defs><style>.cls-1{fill:#f6ac82;}.cls-2{fill:#8fb03e;}.cls-3{fill:#ccdaa5;}.cls-4{fill:#4186b2;}.cls-5{fill:#a5c7da;}.cls-6,.cls-8{fill:#eb5d0b;}.cls-7{font-size:44.09px;fill:#878787;}.cls-7,.cls-8{font-family:ArialMT, Arial;}.cls-8{font-size:79.15px;}.cls-10,.cls-9{fill:#1d1d1b;font-family:Arial-BoldMT, Arial;font-weight:700;}.cls-9{letter-spacing:-0.02em;}</style></defs><title>dataviewer</title><ellipse class="cls-1" cx="73.17" cy="23.33" rx="73.17" ry="20.83"/><path class="cls-2" d="M275.69,290.46c-13.2-4.07-31.26-6.59-51.19-6.59s-38,2.52-51.19,6.59h-22v16.47a7.35,7.35,0,0,0,.08,1c0,.11,0,.22.06.34s.1.48.17.72.07.24.11.37a8.88,8.88,0,0,0,.37.91c.08.18.18.35.28.52s.15.28.24.42.25.4.39.6l.18.25C160.68,322.36,189.75,330,224.5,330s63.82-7.64,71.29-17.88l.18-.25c.14-.2.27-.4.39-.6s.16-.28.24-.42.19-.35.28-.52a8.88,8.88,0,0,0,.37-.91c0-.12.07-.24.11-.37s.13-.48.17-.72,0-.22.06-.34a7.35,7.35,0,0,0,.08-1V290.46Z" transform="translate(-151.33 -219.5)"/><ellipse class="cls-3" cx="73.17" cy="70.33" rx="73.17" ry="20.83"/><path class="cls-4" d="M275.69,266.46c-13.2-4.07-31.26-6.59-51.19-6.59s-38,2.52-51.19,6.59h-22v16.47a7.35,7.35,0,0,0,.08,1c0,.11,0,.22.06.34s.1.48.17.72.07.24.11.37a8.88,8.88,0,0,0,.37.91c.08.18.18.35.28.52s.15.28.24.42.25.4.39.6l.18.25C160.68,298.36,189.75,306,224.5,306s63.82-7.64,71.29-17.88l.18-.25c.14-.2.27-.4.39-.6s.16-.28.24-.42.19-.35.28-.52a8.88,8.88,0,0,0,.37-.91c0-.12.07-.24.11-.37s.13-.48.17-.72,0-.22.06-.34a7.35,7.35,0,0,0,.08-1V266.46Z" transform="translate(-151.33 -219.5)"/><ellipse class="cls-5" cx="73.17" cy="46.33" rx="73.17" ry="20.83"/><path class="cls-6" d="M275.69,242.46c-13.2-4.07-31.26-6.59-51.19-6.59s-38,2.52-51.19,6.59h-22v16.47a7.35,7.35,0,0,0,.08,1c0,.11,0,.22.06.34s.1.48.17.72.07.24.11.37a8.88,8.88,0,0,0,.37.91c.08.18.18.35.28.52s.15.28.24.42.25.4.39.6l.18.25C160.68,274.36,189.75,282,224.5,282s63.82-7.64,71.29-17.88l.18-.25c.14-.2.27-.4.39-.6s.16-.28.24-.42.19-.35.28-.52a8.88,8.88,0,0,0,.37-.91c0-.12.07-.24.11-.37s.13-.48.17-.72,0-.22.06-.34a7.35,7.35,0,0,0,.08-1V242.46Z" transform="translate(-151.33 -219.5)"/><ellipse class="cls-1" cx="73.17" cy="22.33" rx="73.17" ry="20.83"/><text class="cls-7" transform="translate(173.15 37.83)">MageDeveloper</text><text class="cls-8" transform="translate(170.81 104.5)">Data<tspan class="cls-9" x="167.19" y="0">V</tspan><tspan class="cls-10" x="218.56" y="0">iewer</tspan></text></svg>