<?xml version="1.0" encoding="utf-8"?>
<!-- Generator: Adobe Illustrator 21.0.2, SVG Export Plug-In . SVG Version: 6.00 Build 0)  -->
<svg version="1.1" id="Ebene_1" xmlns="http://www.w3.org/2000/svg" xmlns:xlink="http://www.w3.org/1999/xlink" x="0px" y="0px"
	 viewBox="0 0 841.9 595.3" style="enable-background:new 0 0 841.9 595.3;" xml:space="preserve">
<style type="text/css">
	.st0{fill:#F6AC82;}
	.st1{fill:#8FB03E;}
	.st2{fill:#CCDAA5;}
	.st3{fill:#4186B2;}
	.st4{fill:#A5C7DA;}
	.st5{fill:#EB5D0B;}
</style>
<ellipse class="st0" cx="421.5" cy="126.1" rx="383.8" ry="109.3"/>
<path class="st1" d="M690,376c-69.2-21.4-164-34.6-268.5-34.6S222.2,354.6,153,376H37.7v86.4c0,1.8,0.2,3.7,0.4,5.5
	c0.1,0.6,0.2,1.2,0.3,1.8c0.2,1.3,0.5,2.5,0.9,3.8c0.2,0.6,0.3,1.3,0.6,1.9c0.5,1.6,1.2,3.2,1.9,4.8c0.4,0.9,1,1.8,1.4,2.7
	c0.4,0.7,0.8,1.5,1.3,2.2c0.6,1.1,1.3,2.1,2,3.2c0.3,0.4,0.6,0.9,1,1.3c39.2,53.7,191.7,93.8,374,93.8s334.8-40.1,374-93.8
	c0.3-0.4,0.7-0.9,1-1.3c0.7-1,1.4-2.1,2-3.2c0.4-0.7,0.9-1.5,1.3-2.2c0.5-0.9,1-1.8,1.4-2.7c0.7-1.6,1.4-3.2,1.9-4.8
	c0.2-0.6,0.4-1.3,0.6-1.9c0.4-1.3,0.7-2.5,0.9-3.8c0.1-0.6,0.2-1.2,0.3-1.8c0.3-1.8,0.4-3.7,0.4-5.5V376H690z"/>
<ellipse class="st2" cx="421.5" cy="372.7" rx="383.8" ry="109.3"/>
<path class="st3" d="M690,250.1c-69.2-21.4-164-34.6-268.5-34.6S222.2,228.7,153,250.1H37.7v86.4c0,1.8,0.2,3.7,0.4,5.5
	c0.1,0.6,0.2,1.2,0.3,1.8c0.2,1.3,0.5,2.5,0.9,3.8c0.2,0.6,0.3,1.3,0.6,1.9c0.5,1.6,1.2,3.2,1.9,4.8c0.4,0.9,1,1.8,1.4,2.7
	c0.4,0.7,0.8,1.5,1.3,2.2c0.6,1.1,1.3,2.1,2,3.2c0.3,0.4,0.6,0.9,1,1.3c39.2,53.7,191.7,93.8,374,93.8s334.8-40.1,374-93.8
	c0.3-0.4,0.7-0.9,1-1.3c0.7-1,1.4-2.1,2-3.2c0.4-0.7,0.9-1.5,1.3-2.2c0.5-0.9,1-1.8,1.4-2.7c0.7-1.6,1.4-3.2,1.9-4.8
	c0.2-0.6,0.4-1.3,0.6-1.9c0.4-1.3,0.7-2.5,0.9-3.8c0.1-0.6,0.2-1.2,0.3-1.8c0.3-1.8,0.4-3.7,0.4-5.5v-86.4H690z"/>
<ellipse class="st4" cx="421.5" cy="246.8" rx="383.8" ry="109.3"/>
<path class="st5" d="M690,124.2c-69.2-21.4-164-34.6-268.5-34.6S222.2,102.8,153,124.2H37.7v86.4c0,1.8,0.2,3.7,0.4,5.5
	c0.1,0.6,0.2,1.2,0.3,1.8c0.2,1.3,0.5,2.5,0.9,3.8c0.2,0.6,0.3,1.3,0.6,1.9c0.5,1.6,1.2,3.2,1.9,4.8c0.4,0.9,1,1.8,1.4,2.7
	c0.4,0.7,0.8,1.5,1.3,2.2c0.6,1.1,1.3,2.1,2,3.2c0.3,0.4,0.6,0.9,1,1.3c39.2,53.7,191.7,93.8,374,93.8s334.8-40.1,374-93.8
	c0.3-0.4,0.7-0.9,1-1.3c0.7-1,1.4-2.1,2-3.2c0.4-0.7,0.9-1.5,1.3-2.2c0.5-0.9,1-1.8,1.4-2.7c0.7-1.6,1.4-3.2,1.9-4.8
	c0.2-0.6,0.4-1.3,0.6-1.9c0.4-1.3,0.7-2.5,0.9-3.8c0.1-0.6,0.2-1.2,0.3-1.8c0.3-1.8,0.4-3.7,0.4-5.5v-86.4H690z"/>
<ellipse class="st0" cx="421.5" cy="120.9" rx="383.8" ry="109.3"/>
</svg>
